<?xml version="1.0" encoding="utf-8"?>
<!-- Generator: Adobe Illustrator 22.0.1, SVG Export Plug-In . SVG Version: 6.00 Build 0)  -->
<svg version="1.1" id="레이어_3" xmlns="http://www.w3.org/2000/svg" xmlns:xlink="http://www.w3.org/1999/xlink" x="0px"
	 y="0px" viewBox="0 0 500 500" style="enable-background:new 0 0 500 500;" xml:space="preserve">
<path d="M305.1,201.5c0,0,71.9-145.6,139.4-179.5c0,0,25.1,103.2,10.6,226.7c0,0-10.1,113.4,33.1,112.5c0,0-3.1,16.8-14.6,18.1
	c0,0,12.4,6.7,21.2,2.9c0,0-81.2,101.6-245.7,92.8h0.4C85,483.8,3.9,382.2,3.9,382.2c8.8,3.8,21.2-2.9,21.2-2.9
	c-11.5-1.3-14.6-18.1-14.6-18.1c43.2,0.9,33.1-112.5,33.1-112.5C29,125.2,54.2,22,54.2,22c67.5,34,139.4,179.5,139.4,179.5
	S232.2,170.4,305.1,201.5z"/>
</svg>
