<?xml version="1.0" encoding="utf-8"?>
<!-- Generator: Adobe Illustrator 22.0.1, SVG Export Plug-In . SVG Version: 6.00 Build 0)  -->
<svg version="1.1" id="레이어_3" xmlns="http://www.w3.org/2000/svg" xmlns:xlink="http://www.w3.org/1999/xlink" x="0px"
	 y="0px" viewBox="0 0 566.9 566.9" style="enable-background:new 0 0 566.9 566.9;" xml:space="preserve">
<style type="text/css">
	.st0{fill:#231815;}
</style>
<path class="st0" d="M122,175.3c0,0,44.4-48.5,64.9-56.7c0,0,8.2,58.7-21.9,80.6c0,0-8.4,27.3,47,28c0,0-28.5,25.3-37.4,25.3
	c0,0,6.1,8.9,13,10.9c0,0-4.8,11.6-10.9,13c0,0,10.2,19.8,43.7,19.8c0,0,62.8-26,46.4-119.5c0,0-4.1-27.3,16.4-35.5
	c0,0,45.1-21.9,45.8-34.8c0,0,28.7,47.8-8.2,94.9c0,0,62.2,15,1.4,55.3c0,0-2.7,13.7-31.4,13.7c0,0,1.4,15.7-21.2,18.4
	c0,0-4.1,8.9-10.2,9.6c0,0,90.8-23.9,125,7.5c0,0,61.5,4.1,58.7-65.6c0,0-62.8-126.4,14.3-159.2l40.3-16.4c0,0-19.1,47.8,10.9,69
	c0,0,103.8,139.3,6.1,206.3c0,0-61.5,43-120.9-15.7c0,0-2.7,41,13,47.1c0,0,10.9,62.8,2.7,82.7l-23.9,41l-37.1,4.7
	c-4,0.5-7.6-2.7-7.4-6.7c0.3-6.9,4.1-17.1,21.2-23.8l9-45.3l-11.6-14.3c0,0-10.9,4.1-15,0l-53.3,79.2c0,0-28,13-36.9,1.4
	c0,0,4.1-10.9,12.3-19.8l30.1-63.5c0,0-42.4-4.4-46.5,3.8c0,0,6.8,48.8-17.1,55c0,0-51.9,28.7-54.6,39.6c0,0-28.7,13-17.1-24.6
	c0,0,21.2-34.3,41.7-46.6c0,0,8.4-19.1,2.7-22.3c-6-3.4-14.9,3.6-19.7,6c0,0-8.9,18.4-43,36.2c0,0-30.1,8.2-38.9,17.1
	c0,0-27.3,13.7-27.3-10.2c0,0,2-9.6,21.2-23.9c0,0,38.3-23.2,43-38.3c0,0-30.1-26-28-63.5c0,0,2,20.5-19.1,21.2
	c0,0-27.3-1.4-20.5-23.2c0,0,2-20.5,28-17.1c0,0-5.5-24.6-30.7-29.4c0,0-48.5-21.2-55.3-19.8c0,0-15-13.7-4.8-32.8
	c0,0,43,7.5,43.7-24.6c0,0,1.7-11.3-2.7-12.1c0,0,16.2-21.7,37.4-20.2c0,0-4.4-12.8-2-24.1C87,153.1,97.8,176.3,122,175.3z"/>
</svg>
