<?xml version="1.0" encoding="utf-8"?>
<!-- Generator: Adobe Illustrator 22.0.1, SVG Export Plug-In . SVG Version: 6.00 Build 0)  -->
<svg version="1.1" id="레이어_2" xmlns="http://www.w3.org/2000/svg" xmlns:xlink="http://www.w3.org/1999/xlink" x="0px"
	 y="0px" viewBox="0 0 300 300" style="enable-background:new 0 0 300 300;" xml:space="preserve">
<style type="text/css">
	.st0{fill:#F18C1A;}
</style>
<g>
	<path class="st0" d="M265.1,146.9c5.8-8.5,7.6-19.6,4.9-29.5c-8.2,2.8-16.8,4.6-25.4,5.6c-1.7,0.2-3.5,0.3-5.1,1.2
		c-1.3,0.7-2.3,1.9-3.3,3.1c-3.3,4.2-6.1,8.8-10,12.4c-6.3,5.8-14.8,8.3-22.8,11.7c-2.8-3.9-5.5-7.9-8-12.1
		c4.5,0.2,9.1-1.7,12.2-5.1c-4.3-1-8.5-2.7-12.3-4.9c2.4-0.4,4.6-2,5.7-4.2c-3.7,1.4-8.2,2.7-11.3,0.2c-3.9-3.1-2.4-9.1-2.8-14
		c-1.2-13.8-16.7-22.5-19.2-36.1l0-0.7C155.2,51.7,142.6,29,130.1,6.3c-0.7,23.4-1.5,46.8-2.2,70.3c-0.1,2.1-0.2,4.3-1.2,6.2
		c-1.9,3.3-6.5,4.1-10.1,3c-3.6-1.2-6.5-3.9-9.2-6.5c-0.4,2.5,0.3,5.2,2,7.2c-5.5,1.4-10.5,4.8-13.7,9.5c-7.7-19.7-15.3-39.3-23-59
		c-7.9,30.4-4.5,63.5,9.3,91.6c1,2.1,2.1,4.2,2.3,6.5c0.7,7.6-8,12.3-15.2,14.9c2.8,7.5,7.1,16.1,15,17c2.2,0.3,4.5-0.1,6.7-0.5
		c12.6-2.1,25.4-2.6,38-1.7c1.6,0.1,3.4,0.3,4.7,1.3c1.7,1.3,2.2,3.7,2.4,5.9c1.7,14.6-1.2,29.7-8.1,42.7c-0.6,1.1-1.3,2.3-2.4,2.8
		c0,0,0,0,0,0c0.2-0.2,0.3-0.5,0.1-0.9c-5.8-10.2-12.8-14.6-26.2-17.8c-10.4-2.5-38.2,2.2-46.1-4.9c-9.3-8.3-7.4-25.8,3.6-31.8
		c-15.8,1-29.5,13.4-34.5,28.4c-5,15-2,31.9,5.7,45.7s19.7,24.8,32.7,33.7c18.3,12.4,39.3,21.1,61.2,24.5
		c16.4,2.6,33.1,2.2,49.7,1.8c29.1-0.7,32.4,1.2,61.2-2.6c7.2-0.9,14.7-2.2,20.3-6.7c5.5-4.4,8.5-11.3,10-18.1
		c4.6-20.9-3.2-43-16.1-60c-10.8-14.2-13.4-19.6-22.3-31c1.3-1.3,1.8-3.1,2.2-4.9c0.1-0.4,0.2-0.9,0.5-1.2c0.7-0.6,1.7-0.1,2.5,0.3
		c5.3,2.7,12.7-0.3,14.5-6c0.2-0.7,0.4-1.6-0.1-2.2c-0.3-0.4-0.8-0.7-1.3-0.9c-0.6-0.3-1.3-0.5-2-0.6
		C250.6,160.7,259.6,155,265.1,146.9z"/>
</g>
</svg>
