<?xml version="1.0" encoding="utf-8"?>
<!-- Generator: Adobe Illustrator 22.0.1, SVG Export Plug-In . SVG Version: 6.00 Build 0)  -->
<svg version="1.1" id="레이어_1" xmlns="http://www.w3.org/2000/svg" xmlns:xlink="http://www.w3.org/1999/xlink" x="0px"
	 y="0px" viewBox="0 0 500 500" style="enable-background:new 0 0 500 500;" xml:space="preserve">
<style type="text/css">
	.st0{fill:#040000;}
</style>
<g>
	<path class="st0" d="M498.6,286.3c-23.9-12-27.3-20.1-51.5-29c-1.8-0.6-3.7-0.7-5.5-0.2c4.3-6.8,14.2-22.5,12.1-30.2
		c-1.9,3.2-5,5.7-8.6,6.8C420.3,178.5,378.7,131,327.4,99.1c-10.1-6.3-20.8-12.1-32.5-14.3c-13.6-2.6-27.7-0.3-41.2,2.7
		c-31,6.8-64.1,19.4-79.2,47.4c-7.3,13.4-9.6,29.3-18.3,41.9c-15.9,23-47.2,28-71.2,42.4c-17.9,10.8-31.9,27-44.4,43.7
		c-19,25.3-36.1,55.2-32.8,86.7c2.1,19.9,12.7,38.8,28.6,50.9c15.9,12.1,37,17.2,56.7,13.9c-13.3-31.5-0.5-70.5,26-92.1
		c10.3-8.4,22.3-14.6,31.8-23.9c12.2-11.9,19.6-28.6,20.2-45.7c7.2,8.2,14.4,16.3,21.7,24.5c4.2,4.8,8.6,9.8,10.5,16
		c1.9,6.1,1,12.7,0.9,19.1c-0.2,23,10.5,45,25.2,62.7c14.7,17.7,33.2,31.7,51.6,45.5c6.2-5.9,11.4-13.9,10.4-22.4
		c-1.4-12-13.7-19-21.4-28.2c-9.9-11.8-12.6-28.2-11.7-43.6c0.9-15.4,4.8-30.4,6.6-45.8c2.3-20.6,0.5-41.7-5.3-61.7
		c35.9,24.1,65.1,53.7,75.8,94.7c1.2,4.7,1.7,12.4,5.8,14.9c7.4,4.4,8.9,9.4,16.1,16.1c2.4,2.3,5.6,4.5,9,2.1
		c2.3-1.6,3.2-4.6,2.5-7.3l-9.4-58.1c7.3,21.5,20.3,46.3,29.7,65.8c2.6,5.5,5.7,11.5,17.6,6.7c1.6-0.6,3-1.7,3.9-3.2
		c6.1-9.6-0.4-22.7,4.6-32.2c0.2-0.5,0.5-0.9,0.8-1.3c1.9,1.4,4.1,2.4,6.3,3.2c-0.8-2.1-1.2-4.4-0.9-6.7c1.6,2.9,4.4,5.2,7.7,6.1
		c3.2,0.9,6.8,0.3,9.7-1.4c-3.7-1.9-6.3-5.9-6.3-10.1c0-3.3,1.4-6.5,1.4-9.8c0-1.5-0.3-3-0.9-4.5
		C460.9,301.6,468.2,298.7,498.6,286.3z"/>
</g>
</svg>
