<?xml version="1.0" encoding="utf-8"?>
<!-- Generator: Adobe Illustrator 22.0.1, SVG Export Plug-In . SVG Version: 6.00 Build 0)  -->
<svg version="1.1" id="레이어_2" xmlns="http://www.w3.org/2000/svg" xmlns:xlink="http://www.w3.org/1999/xlink" x="0px"
	 y="0px" viewBox="0 0 250 250" style="enable-background:new 0 0 250 250;" xml:space="preserve">
<g>
	<g>
		<path d="M92.3,81.9c-0.6-0.5-1.2-1-1.8-1.6c-4.4-4.3-8.3-9-11.7-14.1c-1.6-2.4-3.4-4.9-4.7-7.4c-1.4-2.8-2.9-5.6-4.6-8.2
			c-0.8-1.3-1.7-2.5-2.6-3.8c-0.9-1.1-2-2.1-2.7-3.3c-0.7-1.2-1.5-4.3-2-6.5c-2.7,3.9-4.6,22.7-5,27.6c-0.3,3.7,0,7.4,0.6,11.1
			c0.5,3.5,2,7.7,1.6,11.2c-1-0.2-2.1-0.3-3.1-0.2c-4,0.3-13,3.9-16.2,0.8c-1.2-1.1-1.3-2.9-1.4-4.5c-0.4-5.9-1.9-11.7-4.2-17.1
			c-1.1-2.6-2.3-5.1-3.5-7.6c-0.8-1.7-4.1-6.3-3.8-8.1c-3.1,18.5-6.2,36.9-9.3,55.4c-2,11.6-0.7,25,6.9,34.5c1.2,1.5,2.6,3.2,2.1,5
			c-0.4,1.4-1.7,2.2-2.7,3.2c-3.1,3.1-3.3,8.4-1.5,12.4c1.8,4.1,5.1,7.2,8.5,10.1c1.3,1.1,2.7,2.2,4.3,2.6c2.9,0.7,5.8-1,8.5-2.3
			c8.1-4.1,13.3-4.1,22.3-2.9c-3.5,9.5-0.9,20.2,4.5,28.9c-3.6,2.5-7,5.4-10,8.7c-2.3,2.4-4.5,5.3-4.6,8.6c0,0.7,0.1,1.5,0.6,1.9
			c0.5,0.5,1.2,0.6,1.9,0.7c5.2,0.5,10.4,0.5,15.6-0.1c1.6-0.2,3.2-0.5,4.8-0.9c-0.8,0.8-1.5,1.7-1.8,2.8c-0.3,1.1-0.1,2.5,0.8,3.2
			c0.6,0.5,1.3,0.7,2.1,0.8c9.5,2,19.4,0.7,28.9-1.1l-0.6-0.3c13.5,2.3,27.8,0.4,41.3-2.2c24.3-4.8,48.1-11.9,71.6-19.5
			c4.3-1.4,8.7-2.8,12-5.9c5.2-4.8,6.4-12.5,6.9-19.5c0.6-8.7,0.4-17.7-2.1-26.1c-1.9-6.4-5-12.3-8.8-17.8c-0.3-0.3-0.7-0.6-1.1-0.9
			c-8.9-12.4-21.9-21.9-32.2-33.4c-4.3-4.8-8.3-10.2-10.5-16.3c-2.2-6.1-2.6-13.1,0.1-19c-9.1,2.9-18.3,6.4-25.2,12.8
			c-10.2,9.5-14.1,25.3-9.4,38.4c1,2.9,2.6,5.7,4.8,7.8c-0.6,0.2-1.2,0.3-1.8,0.5c-10.5,2.7-19.3,8.5-30.6,6.8
			c-2.8-0.4-5.6-1.2-8.4-1.8c-4.5-1-7-3.9-8.3-8.3c-0.9-3,0.7-9.4,1.5-12.4c0.6-2.4,1.8-4.7,3.1-6.8c-0.9,0.2-1.7,0.3-2.6,0.4
			c2.5-3.3,4.2-7.2,4.8-11.4c-1.5,0.3-3,0.6-4.5,1c0.6-3,0.8-6,0.3-9c0.2,1.4-3.8,3.8-4.8,4.3C99.7,85.6,96,84.8,92.3,81.9z"/>
	</g>
</g>
</svg>
